<?xml version="1.0" encoding="UTF-8"?>
<!DOCTYPE svg PUBLIC "-//W3C//DTD SVG 1.1//EN" "http://www.w3.org/Graphics/SVG/1.1/DTD/svg11.dtd">
<!-- Creator: CorelDRAW -->
<svg xmlns="http://www.w3.org/2000/svg" xml:space="preserve" width="8.26772in" height="11.6929in" version="1.1" style="shape-rendering:geometricPrecision; text-rendering:geometricPrecision; image-rendering:optimizeQuality; fill-rule:evenodd; clip-rule:evenodd"
viewBox="0 0 8267.72 11692.91"
 xmlns:xlink="http://www.w3.org/1999/xlink"
 xmlns:xodm="http://www.corel.com/coreldraw/odm/2003">
 <defs>
  <style type="text/css">
   <![CDATA[
    .fil1 {fill:#101D13}
    .fil0 {fill:#ADFF1A}
   ]]>
  </style>
 </defs>
 <g id="Layer_x0020_1">
  <metadata id="CorelCorpID_0Corel-Layer"/>
  <rect class="fil0" x="1191.88" y="6642.17" width="2771.66" height="2771.66" rx="383.2" ry="383.2"/>
  <g id="_3147358938192">
   <rect class="fil1" transform="matrix(0.871602 -0.282147 0.291667 0.953828 1872.97 7708.37)" width="252.44" height="1102.52"/>
   <polygon class="fil1" points="1990.6,7487.2 2334.03,7375 2402.8,7599.9 2059.37,7712.09 "/>
   <polygon class="fil1" points="2303.91,7480.86 2647.34,7368.66 2716.11,7593.56 2372.68,7705.76 "/>
   <polygon class="fil1" points="2674.98,7472.27 3089.04,7333.28 3157.81,7558.17 2743.75,7697.17 "/>
   <polygon class="fil1" points="2868.96,7408.08 3088.99,7336.85 3282.45,7969.52 3062.42,8040.75 "/>
   <polygon class="fil1" points="2127.04,8127.58 2470.47,8015.39 2539.24,8240.28 2195.81,8352.48 "/>
   <polygon class="fil1" points="2440.35,8121.24 2783.78,8009.05 2852.55,8233.94 2509.11,8346.14 "/>
   <polygon class="fil1" points="2811.41,8112.65 3091.7,8018.57 3160.47,8243.47 2880.19,8337.56 "/>
  </g>
 </g>
</svg>
