<?xml version="1.0" encoding="UTF-8"?>
<!DOCTYPE svg PUBLIC "-//W3C//DTD SVG 1.1//EN" "http://www.w3.org/Graphics/SVG/1.1/DTD/svg11.dtd">
<!-- Creator: CorelDRAW -->
<svg xmlns="http://www.w3.org/2000/svg" xml:space="preserve" width="0.578024in" height="0.585083in" version="1.1" style="shape-rendering:geometricPrecision; text-rendering:geometricPrecision; image-rendering:optimizeQuality; fill-rule:evenodd; clip-rule:evenodd"
viewBox="0 0 83.14 84.15"
 xmlns:xlink="http://www.w3.org/1999/xlink"
 xmlns:xodm="http://www.corel.com/coreldraw/odm/2003">
 <defs>
  <style type="text/css">
   <![CDATA[
    .fil0 {fill:#101D13}
   ]]>
  </style>
 </defs>
 <g id="Layer_x0020_1">
  <metadata id="CorelCorpID_0Corel-Layer"/>
  <g id="_3147155060288">
   <rect class="fil0" transform="matrix(0.357441 -0.115708 0.119612 0.391161 5.43213E-05 22.1236)" width="36.31" height="158.57"/>
   <polygon class="fil0" points="6.94,9.08 27.2,2.46 31.25,15.73 10.99,22.34 "/>
   <polygon class="fil0" points="25.42,8.7 45.67,2.09 49.73,15.35 29.47,21.97 "/>
   <polygon class="fil0" points="47.3,8.2 71.73,0 75.78,13.26 51.36,21.46 "/>
   <polygon class="fil0" points="58.75,4.41 71.72,0.21 83.14,37.53 70.16,41.73 "/>
   <polygon class="fil0" points="14.99,46.85 35.24,40.23 39.3,53.5 19.04,60.12 "/>
   <polygon class="fil0" points="33.47,46.48 53.72,39.86 57.78,53.12 37.52,59.74 "/>
   <polygon class="fil0" points="55.35,45.97 71.88,40.42 75.94,53.69 59.41,59.24 "/>
  </g>
 </g>
</svg>
